<?xml version="1.0" encoding="utf-8"?>
<!-- Generator: Adobe Illustrator 24.1.0, SVG Export Plug-In . SVG Version: 6.00 Build 0)  -->
<svg version="1.1" id="Layer_1" xmlns="http://www.w3.org/2000/svg" xmlns:xlink="http://www.w3.org/1999/xlink" x="0px" y="0px"
	 viewBox="0 0 150 150" style="enable-background:new 0 0 150 150;" xml:space="preserve">
<style type="text/css">
	.st0{fill:#AF9376;}
	.st1{fill:#E20613;stroke:#E20613;}
	.st2{fill:none;stroke:#AF9376;}
</style>
<g>
	<g>
		<path class="st0" d="M34.21,127.09l0.31-0.07l-0.35,1.19c-0.14,0.47-0.27,1.02-0.4,1.63c-0.07,0.33-0.1,0.55-0.1,0.65
			c0,0.1,0.04,0.15,0.12,0.15c0.05,0,0.13-0.03,0.24-0.1c0.19-0.12,0.38-0.26,0.56-0.43l0.15,0.18c-0.36,0.32-0.58,0.52-0.68,0.59
			c-0.2,0.14-0.39,0.24-0.57,0.3c-0.12,0.04-0.23,0.07-0.35,0.07c-0.08,0-0.14-0.02-0.18-0.06c-0.04-0.04-0.06-0.09-0.06-0.16
			c0-0.05,0.01-0.11,0.04-0.19l0.19-0.64c-0.27,0.32-0.59,0.6-0.96,0.83c-0.23,0.14-0.44,0.22-0.63,0.22
			c-0.18,0-0.32-0.06-0.42-0.19c-0.13-0.17-0.2-0.4-0.2-0.68c0-0.33,0.09-0.7,0.26-1.11c0.18-0.41,0.41-0.78,0.71-1.11
			c0.3-0.33,0.61-0.58,0.94-0.73c0.25-0.12,0.58-0.18,0.98-0.18c0.1,0,0.2,0.01,0.3,0.02L34.21,127.09z M33.63,127.8
			c-0.17-0.03-0.31-0.05-0.43-0.05c-0.28,0-0.53,0.08-0.74,0.23c-0.21,0.15-0.4,0.43-0.58,0.83c-0.18,0.4-0.27,0.8-0.27,1.2
			c0,0.21,0.04,0.37,0.11,0.46c0.07,0.09,0.17,0.14,0.28,0.14c0.22,0,0.45-0.12,0.69-0.35c0.25-0.23,0.43-0.57,0.54-1.01
			L33.63,127.8z"/>
		<path class="st0" d="M41.57,127.29h0.67l-0.44,1.64c-0.26,0.95-0.39,1.49-0.39,1.62c0,0.06,0.01,0.1,0.04,0.14
			c0.03,0.03,0.06,0.05,0.09,0.05c0.05,0,0.12-0.02,0.19-0.07c0.1-0.07,0.3-0.25,0.59-0.54l0.15,0.17
			c-0.63,0.65-1.09,0.98-1.39,0.98c-0.1,0-0.19-0.04-0.26-0.11c-0.07-0.08-0.11-0.19-0.11-0.33c0-0.16,0.03-0.38,0.1-0.65
			c-0.28,0.32-0.62,0.6-1.03,0.84c-0.27,0.16-0.51,0.24-0.71,0.24c-0.11,0-0.2-0.04-0.26-0.11c-0.06-0.07-0.09-0.19-0.09-0.34
			c0-0.12,0.01-0.25,0.04-0.39c0.04-0.2,0.14-0.59,0.31-1.19c0.21-0.75,0.31-1.21,0.31-1.36c0-0.09-0.03-0.13-0.09-0.13
			c-0.06,0-0.13,0.03-0.23,0.09c-0.1,0.06-0.26,0.2-0.5,0.42l-0.21-0.16c0.42-0.38,0.74-0.62,0.96-0.74
			c0.22-0.12,0.4-0.18,0.53-0.18c0.08,0,0.14,0.03,0.18,0.08c0.05,0.05,0.07,0.14,0.07,0.26c0,0.22-0.11,0.75-0.34,1.59
			c-0.2,0.76-0.3,1.19-0.3,1.3c0,0.07,0.02,0.12,0.06,0.17c0.04,0.05,0.09,0.07,0.14,0.07c0.17,0,0.42-0.14,0.74-0.43
			c0.32-0.29,0.53-0.62,0.63-0.99L41.57,127.29z"/>
		<path class="st0" d="M47.49,126.44l0.74-0.29l-0.34,1.31h0.97l-0.08,0.33h-0.97l-0.41,1.57c-0.13,0.47-0.19,0.8-0.19,0.98
			c0,0.08,0.02,0.15,0.05,0.18c0.04,0.04,0.09,0.06,0.15,0.06c0.1,0,0.25-0.06,0.45-0.17c0.26-0.15,0.51-0.33,0.75-0.52l0.18,0.22
			c-0.68,0.52-1.14,0.83-1.37,0.95c-0.23,0.12-0.42,0.17-0.56,0.17c-0.12,0-0.21-0.04-0.27-0.13c-0.07-0.08-0.1-0.22-0.1-0.41
			c0-0.23,0.06-0.57,0.18-1.03l0.48-1.87h-0.76l0.08-0.33h0.76L47.49,126.44z"/>
		<path class="st0" d="M55.07,129.93l0.15,0.21c-0.77,0.73-1.42,1.09-1.97,1.09c-0.22,0-0.39-0.07-0.51-0.23
			c-0.12-0.15-0.18-0.39-0.18-0.72c0-0.67,0.2-1.33,0.61-2c0.46-0.75,1-1.13,1.64-1.13c0.22,0,0.39,0.06,0.51,0.17
			c0.12,0.11,0.18,0.26,0.18,0.46c0,0.2-0.07,0.4-0.21,0.6s-0.39,0.4-0.75,0.61c-0.18,0.1-0.57,0.29-1.16,0.56
			c-0.03,0.17-0.04,0.33-0.04,0.48c0,0.22,0.04,0.38,0.11,0.46c0.07,0.09,0.17,0.13,0.31,0.13c0.13,0,0.27-0.04,0.42-0.11
			C54.37,130.43,54.67,130.23,55.07,129.93z M53.43,129.25c0.5-0.22,0.88-0.47,1.13-0.73c0.17-0.18,0.26-0.36,0.26-0.54
			c0-0.13-0.04-0.24-0.11-0.32c-0.07-0.08-0.16-0.12-0.27-0.12c-0.12,0-0.23,0.04-0.34,0.13c-0.15,0.12-0.27,0.29-0.37,0.52
			C53.59,128.55,53.48,128.9,53.43,129.25z"/>
	</g>
	<g>
		<path class="st0" d="M36.34,42.67v0.78c-1.04,0.17-1.97,0.72-2.78,1.67c-0.59,0.7-1.47,2.36-2.64,4.96l-9.85,21.85h-0.7
			l-9.81-22.74c-1.18-2.74-1.97-4.35-2.37-4.83c-0.4-0.48-1.16-0.78-2.27-0.91v-0.78h13.71v0.78h-0.46c-1.24,0-2.08,0.15-2.53,0.46
			c-0.32,0.21-0.49,0.52-0.49,0.93c0,0.25,0.06,0.55,0.17,0.9c0.11,0.34,0.49,1.27,1.14,2.77l6.1,14.24l5.65-12.68
			c0.67-1.53,1.09-2.56,1.24-3.08c0.15-0.52,0.23-0.96,0.23-1.33c0-0.42-0.11-0.79-0.34-1.12c-0.23-0.32-0.56-0.57-0.99-0.74
			c-0.6-0.24-1.41-0.36-2.4-0.36v-0.78H36.34z"/>
		<path class="st0" d="M45.16,68.36c-2.4,2.12-4.56,3.19-6.48,3.19c-1.13,0-2.06-0.37-2.81-1.11c-0.75-0.74-1.12-1.66-1.12-2.77
			c0-1.5,0.65-2.86,1.94-4.06c1.29-1.2,4.11-2.8,8.46-4.8v-1.98c0-1.49-0.08-2.43-0.24-2.82C44.75,53.62,44.45,53.28,44,53
			c-0.45-0.29-0.96-0.43-1.52-0.43c-0.91,0-1.67,0.2-2.26,0.61c-0.37,0.25-0.55,0.55-0.55,0.89c0,0.3,0.2,0.66,0.59,1.1
			c0.53,0.6,0.8,1.19,0.8,1.75c0,0.69-0.26,1.28-0.77,1.76c-0.51,0.49-1.18,0.73-2.01,0.73c-0.89,0-1.63-0.27-2.23-0.8
			c-0.6-0.53-0.9-1.16-0.9-1.88c0-1.01,0.4-1.98,1.2-2.9c0.8-0.92,1.92-1.63,3.35-2.12c1.43-0.49,2.92-0.74,4.47-0.74
			c1.87,0,3.35,0.4,4.44,1.19c1.09,0.79,1.8,1.66,2.12,2.58c0.2,0.59,0.3,1.95,0.3,4.07v7.66c0,0.9,0.03,1.47,0.11,1.7
			c0.07,0.23,0.18,0.4,0.32,0.52c0.14,0.11,0.3,0.17,0.49,0.17c0.37,0,0.74-0.26,1.12-0.78l0.63,0.51c-0.7,1.04-1.43,1.8-2.18,2.27
			c-0.75,0.47-1.61,0.71-2.56,0.71c-1.13,0-2-0.26-2.64-0.79C45.69,70.23,45.3,69.43,45.16,68.36z M45.16,66.82v-6.6
			c-1.7,1-2.97,2.07-3.8,3.21c-0.55,0.76-0.82,1.53-0.82,2.3c0,0.65,0.23,1.22,0.7,1.71c0.35,0.38,0.84,0.57,1.48,0.57
			C43.42,68,44.23,67.61,45.16,66.82z"/>
		<path class="st0" d="M63.93,51.55v2.55c1.01-1.1,1.98-1.89,2.91-2.39c0.93-0.5,1.93-0.75,3-0.75c1.28,0,2.34,0.36,3.19,1.07
			c0.84,0.71,1.41,1.59,1.69,2.65c0.22,0.8,0.34,2.34,0.34,4.62v7.68c0,1.52,0.14,2.46,0.41,2.84c0.27,0.37,0.85,0.61,1.72,0.71
			v0.76H67.2v-0.76c0.75-0.1,1.28-0.41,1.6-0.93c0.22-0.35,0.34-1.22,0.34-2.62V58.2c0-1.62-0.06-2.64-0.19-3.06
			c-0.13-0.42-0.34-0.75-0.64-0.98c-0.3-0.23-0.64-0.35-1-0.35c-1.21,0-2.33,0.86-3.38,2.59v10.57c0,1.48,0.14,2.41,0.41,2.81
			c0.27,0.39,0.78,0.64,1.53,0.74v0.76H55.9v-0.76c0.83-0.08,1.42-0.35,1.77-0.8c0.24-0.31,0.36-1.22,0.36-2.74V55.83
			c0-1.49-0.14-2.42-0.41-2.78c-0.27-0.37-0.85-0.6-1.72-0.72v-0.78H63.93z"/>
	</g>
	<g>
		<path class="st0" d="M46.25,98.28v8.86c0,1.46,0.08,2.38,0.24,2.74c0.16,0.37,0.48,0.69,0.95,0.96c0.47,0.27,1.11,0.41,1.91,0.41
			h0.95v0.78H35.35v-0.78h0.95c0.83,0,1.5-0.15,2-0.44c0.37-0.2,0.65-0.53,0.84-1.01c0.15-0.34,0.23-1.22,0.23-2.66V88.33
			c0-1.46-0.08-2.38-0.23-2.74c-0.15-0.37-0.47-0.69-0.94-0.96c-0.47-0.27-1.11-0.41-1.91-0.41h-0.95v-0.78H50.3v0.78h-0.95
			c-0.83,0-1.5,0.15-2,0.44c-0.37,0.2-0.65,0.53-0.86,1.01c-0.15,0.34-0.23,1.22-0.23,2.66v8.1h10.1v-8.1
			c0-1.46-0.08-2.38-0.23-2.74c-0.15-0.37-0.47-0.69-0.95-0.96c-0.48-0.27-1.12-0.41-1.92-0.41h-0.93v-0.78h14.93v0.78h-0.93
			c-0.84,0-1.51,0.15-2,0.44c-0.37,0.2-0.65,0.53-0.86,1.01c-0.15,0.34-0.23,1.22-0.23,2.66v18.82c0,1.46,0.08,2.38,0.23,2.74
			c0.15,0.37,0.47,0.69,0.95,0.96c0.48,0.27,1.12,0.41,1.92,0.41h0.93v0.78H52.33v-0.78h0.93c0.84,0,1.51-0.15,2-0.44
			c0.37-0.2,0.65-0.53,0.86-1.01c0.15-0.34,0.23-1.22,0.23-2.66v-8.86H46.25z"/>
		<path class="st0" d="M78.8,91.72c1.72,0,3.31,0.44,4.79,1.33c1.48,0.89,2.6,2.14,3.36,3.78c0.77,1.63,1.15,3.42,1.15,5.36
			c0,2.8-0.71,5.14-2.13,7.02c-1.72,2.28-4.09,3.42-7.11,3.42c-2.97,0-5.25-1.04-6.86-3.12c-1.6-2.08-2.4-4.49-2.4-7.24
			c0-2.83,0.82-5.29,2.46-7.39C73.7,92.78,75.95,91.72,78.8,91.72z M78.89,93.22c-0.72,0-1.33,0.27-1.85,0.81
			c-0.51,0.54-0.85,1.61-1.01,3.21c-0.16,1.6-0.24,3.81-0.24,6.66c0,1.5,0.1,2.91,0.3,4.22c0.15,1,0.49,1.76,0.99,2.28
			c0.51,0.52,1.08,0.78,1.73,0.78c0.63,0,1.16-0.18,1.58-0.53c0.55-0.48,0.91-1.15,1.1-2c0.28-1.34,0.42-4.04,0.42-8.1
			c0-2.39-0.13-4.03-0.4-4.93c-0.27-0.89-0.66-1.54-1.18-1.95C79.96,93.37,79.48,93.22,78.89,93.22z"/>
		<path class="st0" d="M100,112.63l-6.64-15.29c-0.8-1.84-1.43-3.01-1.88-3.5c-0.32-0.37-0.8-0.61-1.43-0.74v-0.78h10.48v0.78
			c-0.66,0-1.11,0.12-1.35,0.36c-0.34,0.31-0.51,0.68-0.51,1.1c0,0.52,0.31,1.5,0.93,2.93l3.25,7.4l2.59-6.39
			c0.75-1.83,1.12-3.12,1.12-3.88c0-0.44-0.16-0.79-0.47-1.07c-0.32-0.27-0.88-0.43-1.68-0.45v-0.78h6.45v0.78
			c-0.62,0.08-1.13,0.32-1.52,0.7c-0.39,0.38-0.98,1.5-1.77,3.35l-6.58,15.48H100z"/>
		<path class="st0" d="M129.41,101.47h-10.82c0.13,2.62,0.82,4.68,2.09,6.2c0.97,1.17,2.14,1.75,3.5,1.75c0.84,0,1.61-0.24,2.3-0.71
			c0.69-0.47,1.43-1.32,2.21-2.54l0.72,0.46c-1.07,2.18-2.25,3.72-3.54,4.63c-1.29,0.91-2.79,1.36-4.49,1.36
			c-2.93,0-5.14-1.12-6.64-3.38c-1.21-1.81-1.81-4.06-1.81-6.75c0-3.29,0.89-5.91,2.67-7.86c1.78-1.95,3.86-2.92,6.25-2.92
			c2,0,3.73,0.82,5.2,2.46C128.5,95.82,129.29,98.25,129.41,101.47z M124.22,100.06c0-2.26-0.12-3.82-0.37-4.66
			c-0.25-0.84-0.63-1.48-1.15-1.92c-0.3-0.25-0.69-0.38-1.18-0.38c-0.73,0-1.33,0.36-1.79,1.08c-0.83,1.25-1.24,2.97-1.24,5.15v0.74
			H124.22z"/>
	</g>
	<g>
		<path class="st1" d="M80.82,81.23l-0.89,2.22L77.3,84.1l0.98-2.55c-3.11,0.22-6.02-0.21-8.75-1.3c-3.91,5.18-8.07,8.31-12.48,9.4
			c-1.9,0.47-3.76,0.39-5.58-0.23c-1.82-0.63-2.92-1.7-3.3-3.23c-0.21-0.84-0.13-1.55,0.22-2.14c0.36-0.59,0.83-0.96,1.4-1.1
			c0.53-0.13,1.03-0.06,1.49,0.21c0.46,0.27,0.75,0.66,0.88,1.15c0.11,0.43,0.04,0.84-0.2,1.23c-0.24,0.38-0.58,0.63-1.03,0.74
			c-1.01,0.25-1.72-0.28-2.11-1.58l-0.1,0c-0.27,0.56-0.34,1.12-0.2,1.68c0.32,1.3,1.37,2.24,3.13,2.82
			c1.77,0.58,3.65,0.63,5.64,0.13c2.38-0.59,4.72-1.87,7.02-3.83c2.3-1.96,3.95-3.76,4.97-5.39c-4.43-2.49-7.12-5.68-8.08-9.55
			c-0.59-2.38-0.46-4.55,0.4-6.52c0.85-1.96,2.22-3.18,4.11-3.64c2.14-0.53,4.3-0.16,6.48,1.12c2.18,1.28,4.07,3.21,5.68,5.78
			c5.15-7.83,8.92-13.07,11.3-15.71c2.39-2.64,4.62-4.73,6.69-6.25c2.07-1.53,4.12-2.59,6.14-3.17L96.76,50
			c-2.51,3.73-5.49,9.06-8.95,16c-3.46,6.93-5.74,11.91-6.86,14.94c2.69-0.82,4.75-2.21,6.19-4.17l0.21,0.13
			C85.91,78.84,83.73,80.29,80.82,81.23z M69.46,79.94c1.03-1.28,2.49-3.34,4.37-6.19c1.89-2.85,3.18-4.91,3.89-6.2
			c-1.23-2.15-2.87-3.86-4.92-5.13c-2.05-1.28-4.04-1.67-5.99-1.19c-2.02,0.5-3.53,1.67-4.52,3.5c-0.99,1.83-1.2,3.89-0.64,6.16
			C62.58,74.63,65.18,77.65,69.46,79.94z M78.41,81.32c1.03-4.26,1.17-7.88,0.44-10.86c-0.22-0.87-0.55-1.76-1-2.68
			c-3.03,4.97-5.75,9.07-8.15,12.3c1.01,0.49,2.37,0.86,4.09,1.11C75.51,81.44,77.05,81.48,78.41,81.32z M78,67.57
			c0.47,0.86,0.83,1.78,1.07,2.77c0.6,2.42,0.58,5.43-0.04,9.03l0.22,0.05c2.81-6.93,6.44-14.1,10.89-21.5
			c4.45-7.41,8.09-12.4,10.92-14.98l-0.09-0.16c-3.05,1.06-6.36,3.42-9.93,7.09C87.47,53.53,83.13,59.43,78,67.57z"/>
		<path class="st1" d="M87.14,76.77c3.01-4.11,5.2-6.34,6.57-6.67c0.32-0.08,0.63-0.04,0.91,0.11c0.29,0.16,0.47,0.41,0.56,0.78
			c0.26,1.07-0.11,2.49-1.12,4.27l0.12,0.07c2.96-4.25,5.17-6.56,6.61-6.92c1.09-0.27,1.75,0.05,1.98,0.97
			c0.16,0.63,0.09,1.33-0.18,2.1c-0.28,0.77-0.88,1.8-1.81,3.09c-0.93,1.29-1.49,2.13-1.7,2.51c-0.2,0.38-0.28,0.69-0.22,0.91
			c0.04,0.18,0.16,0.31,0.34,0.4c0.18,0.09,0.37,0.11,0.57,0.07c0.5-0.12,1.21-0.58,2.12-1.36c0.92-0.78,1.89-1.89,2.92-3.32
			l1.24-1.72l0.21,0.13c-2.7,3.95-4.86,6.12-6.5,6.53c-0.35,0.09-0.69,0.02-1.02-0.2c-0.33-0.22-0.54-0.54-0.65-0.96
			c-0.1-0.4-0.1-0.84,0-1.31c0.1-0.47,0.23-0.88,0.41-1.23c0.18-0.35,0.64-1.05,1.39-2.09l0.88-1.22c0.99-1.38,1.44-2.27,1.33-2.69
			c-0.11-0.44-0.48-0.57-1.13-0.42c-1.19,0.29-2.64,1.55-4.34,3.76s-3.63,5.01-5.78,8.41l-2.4,0.59l5.02-8.28
			c0.79-1.31,1.14-2.12,1.06-2.45c-0.09-0.36-0.36-0.48-0.81-0.37c-1.27,0.32-3.4,2.52-6.38,6.6L87.14,76.77z"/>
		<path class="st1" d="M127.73,47.81l1.98-0.49L116.81,68.6c-2.04,3.41-3,5.36-2.88,5.86c0.05,0.21,0.19,0.36,0.41,0.46
			c0.22,0.1,0.44,0.12,0.67,0.06c0.47-0.11,1.1-0.61,1.91-1.5c0.81-0.88,2.09-2.57,3.84-5.05l0.21,0.13l-1.59,2.17
			c-1.29,1.76-2.23,2.93-2.82,3.51c-0.59,0.58-1.1,0.92-1.52,1.02c-0.37,0.09-0.72,0.06-1.04-0.11c-0.32-0.16-0.53-0.44-0.63-0.83
			c-0.2-0.79,0.02-1.9,0.64-3.33l-0.12-0.07c-0.52,0.81-1.3,1.85-2.34,3.1c-1.05,1.26-1.82,2.05-2.33,2.38
			c-0.51,0.33-0.98,0.55-1.41,0.66c-0.52,0.13-0.96,0.05-1.33-0.24c-0.37-0.28-0.62-0.7-0.76-1.25c-0.29-1.17-0.05-2.49,0.73-3.93
			c0.78-1.45,1.99-2.81,3.63-4.1c1.65-1.29,2.98-2.06,3.99-2.31c0.43-0.11,0.83-0.08,1.18,0.09c0.35,0.17,0.57,0.45,0.67,0.83
			c0.06,0.23,0.04,0.6-0.03,1.11L127.73,47.81z M115.63,66.21c-0.16-0.66-0.62-0.9-1.38-0.71c-1.29,0.32-2.96,1.94-5.01,4.88
			c-2.05,2.93-2.96,4.87-2.73,5.8c0.14,0.56,0.56,0.76,1.25,0.59c0.71-0.18,1.38-0.57,2-1.17c0.63-0.61,1.56-1.68,2.79-3.23
			c1.23-1.54,2.09-2.81,2.57-3.79C115.61,67.59,115.78,66.8,115.63,66.21z"/>
		<path class="st1" d="M120.98,68.57l-0.21-0.13l2.92-3.93c0.46-0.61,0.78-1.07,0.96-1.39c-0.59-0.18-0.95-0.53-1.09-1.06
			c-0.08-0.34-0.04-0.66,0.13-0.98c0.17-0.32,0.4-0.51,0.69-0.58c0.21-0.05,0.42-0.01,0.63,0.13c0.21,0.14,0.35,0.33,0.42,0.59
			c0.06,0.26,0.03,0.5-0.1,0.73c-0.13,0.23-0.32,0.37-0.57,0.44c-0.17,0.04-0.37,0.02-0.59-0.06c0,0.07,0,0.11,0.01,0.13
			c0.04,0.14,0.18,0.26,0.44,0.35c0.26,0.09,0.6,0.08,1.04-0.03c0.62-0.15,1.25-0.48,1.89-0.98l1.63,1.11
			c-0.16,0.67-0.61,1.57-1.34,2.68c-0.74,1.12-1.46,2.29-2.16,3.52c-0.7,1.23-1.09,1.95-1.18,2.18c-0.08,0.23-0.1,0.43-0.05,0.61
			c0.11,0.45,0.43,0.61,0.94,0.49c0.61-0.15,1.47-0.75,2.58-1.78c1.11-1.04,2.45-2.68,4.01-4.92l0.21,0.13
			c-2.95,4.16-5.21,6.44-6.79,6.83c-0.47,0.12-0.87,0.06-1.21-0.18c-0.34-0.23-0.57-0.59-0.69-1.07c-0.15-0.61-0.11-1.27,0.14-1.98
			c0.24-0.71,0.86-1.86,1.85-3.45c0.99-1.59,1.66-2.77,2-3.52l-0.14-0.15c-0.62,0.41-1.22,0.69-1.8,0.83
			c-0.16,0.04-0.34,0.06-0.53,0.05L120.98,68.57z"/>
		<path class="st1" d="M141.72,63.25l0.21,0.13c-1.5,2.18-2.96,3.85-4.36,5.01c-1.4,1.16-2.57,1.85-3.52,2.09
			c-1.32,0.33-2.14-0.19-2.48-1.54c-0.45-1.82,0.37-3.84,2.46-6.07c2.09-2.22,3.83-3.51,5.23-3.86c0.26-0.06,0.5-0.05,0.72,0.05
			c0.22,0.1,0.36,0.25,0.41,0.46c0.2,0.79-0.38,1.81-1.73,3.07c-1.35,1.26-2.95,2.23-4.8,2.91c-1.24,2.05-1.78,3.38-1.63,3.99
			c0.07,0.29,0.28,0.52,0.64,0.7c0.35,0.18,0.72,0.22,1.11,0.12c0.84-0.21,1.93-0.87,3.29-1.98
			C138.61,67.23,140.1,65.54,141.72,63.25z M134.16,65.18c0.48-0.12,1.29-0.54,2.41-1.27c1.12-0.72,2.01-1.52,2.66-2.38
			c0.65-0.87,0.92-1.52,0.81-1.95c-0.08-0.31-0.29-0.42-0.65-0.33c-0.42,0.1-0.85,0.35-1.3,0.73c-0.44,0.38-1.08,1.11-1.92,2.16
			C135.35,63.2,134.68,64.21,134.16,65.18z M139.06,57.15c0.08-0.02,0.44-0.31,1.09-0.88c0.28-0.26,0.52-0.5,0.72-0.72
			c0.23-0.26,0.44-0.55,0.65-0.88c0.25-0.37,0.46-0.71,0.62-1.02l0.39-0.81c0.09-0.18,0.17-0.3,0.24-0.37
			c0.05-0.07,0.11-0.11,0.17-0.14c0.06-0.03,0.13-0.06,0.21-0.08c0.48-0.12,0.78,0.05,0.9,0.52c0.02,0.1,0.03,0.21,0.03,0.33
			c0,0.14-0.02,0.26-0.06,0.37c-0.06,0.12-0.13,0.25-0.21,0.38c-0.13,0.19-0.3,0.39-0.51,0.61c-0.29,0.29-0.6,0.58-0.94,0.85
			c-0.31,0.26-0.63,0.51-0.95,0.72c-0.34,0.22-0.66,0.4-0.97,0.55C139.72,56.91,139.27,57.1,139.06,57.15z"/>
	</g>
	<g>
		<path class="st0" d="M35.81,122.54c0,1.12-0.68,2.07-2.04,2.83c-0.59,0.33-0.99,0.5-1.21,0.5c-0.06,0-0.08-0.03-0.08-0.08
			c0-0.04,0.1-0.09,0.31-0.17c0.79-0.31,1.43-0.75,1.93-1.32c0.5-0.57,0.75-1.16,0.75-1.77c0-0.56-0.19-1.02-0.58-1.37
			c-0.39-0.35-0.89-0.53-1.52-0.53c-2.01,0-3.81,1.16-5.4,3.47c-0.27,0.4-1.11,1.94-2.5,4.63c-1.51,2.89-3.29,4.67-5.34,5.33
			c0.61,0.08,1.09,0.12,1.44,0.12c1.28,0,2.37-0.42,3.26-1.26c0.77-0.72,1.47-1.55,2.1-2.51c0.08-0.1,0.13-0.15,0.17-0.15
			c0.03,0.01,0.04,0.02,0.04,0.04c0,0.07-0.33,0.53-0.99,1.38c-0.78,1.01-1.5,1.7-2.15,2.07c-0.65,0.38-1.45,0.56-2.39,0.56
			c-0.58,0-1.22-0.05-1.9-0.15c-0.52,0.14-0.99,0.21-1.42,0.21c-0.37,0-0.55-0.08-0.55-0.23c0-0.18,0.29-0.26,0.86-0.26
			c0.32,0,0.73,0.04,1.21,0.13c0.93-0.41,1.63-0.91,2.12-1.51c0.52-0.65,1.3-2,2.33-4.06l0.17-0.35h-4.1
			c-0.66,1.23-1.23,2.14-1.72,2.73c-0.49,0.59-1.14,1.16-1.95,1.72c-1.79,1.22-3.52,1.84-5.19,1.84c-0.97,0-1.76-0.21-2.37-0.62
			c-0.61-0.41-0.91-0.95-0.91-1.61c0-0.34,0.1-0.64,0.31-0.9c0.2-0.25,0.45-0.38,0.75-0.38c0.46,0,0.69,0.23,0.69,0.7
			c0,0.22-0.07,0.42-0.21,0.58c-0.14,0.16-0.32,0.24-0.53,0.24c-0.33,0-0.5-0.17-0.5-0.5c0.02-0.18,0-0.26-0.06-0.26
			c-0.13,0-0.19,0.19-0.19,0.56c0,0.58,0.27,1.05,0.81,1.42c0.54,0.37,1.23,0.55,2.08,0.55c1.48,0,2.78-0.44,3.9-1.32
			c1.12-0.88,2.38-2.47,3.79-4.75H15.8l0.08-0.21h3.29c0.08-0.14,0.23-0.37,0.43-0.67c1.48-2.39,2.87-4.06,4.17-5.01
			c0.27-0.2,0.64-0.42,1.1-0.66c0.46-0.24,0.74-0.35,0.84-0.35c0.04,0.01,0.06,0.04,0.06,0.08c0,0.04-0.07,0.09-0.21,0.15
			c-0.86,0.35-1.64,0.96-2.32,1.81c-0.68,0.86-1.62,2.41-2.81,4.65h4.11c1.31-2.35,2.74-4.18,4.29-5.48
			c1.54-1.3,3.05-1.96,4.52-1.96c0.72,0,1.31,0.2,1.77,0.59C35.59,121.42,35.81,121.92,35.81,122.54z M22.13,122.8
			c0,0.15-0.21,0.44-0.62,0.89c-0.62,0.67-1.21,1-1.77,1c-0.4,0-0.73-0.14-1-0.43s-0.4-0.63-0.4-1.05c0-0.39,0.14-0.87,0.43-1.44
			c0.36-0.72,0.54-1.21,0.54-1.49c0-0.36-0.17-0.65-0.51-0.86c-0.34-0.22-0.78-0.33-1.33-0.33c-1.57,0-3.04,0.63-4.42,1.89
			c-1.38,1.26-2.07,2.61-2.07,4.05c0,0.74,0.22,1.34,0.68,1.81c0.45,0.47,1.03,0.7,1.75,0.7c1.39,0,2.55-0.64,3.5-1.92
			c0.01-0.04,0.04-0.07,0.06-0.07c0.06,0,0.08,0.03,0.08,0.09c0,0.15-0.22,0.42-0.67,0.81c-0.93,0.84-1.93,1.26-3.02,1.26
			c-0.76,0-1.38-0.25-1.86-0.74c-0.48-0.49-0.72-1.13-0.72-1.92c0-1.52,0.7-2.92,2.11-4.2c1.41-1.28,2.95-1.92,4.62-1.92
			c1.47,0,2.2,0.65,2.2,1.94c0,0.44-0.15,0.97-0.45,1.59c-0.3,0.62-0.45,1.03-0.45,1.23c0,0.53,0.29,0.8,0.86,0.8
			c0.35,0,0.75-0.17,1.2-0.5c0.45-0.33,0.8-0.72,1.04-1.17c0.04-0.07,0.07-0.11,0.11-0.11C22.11,122.71,22.13,122.74,22.13,122.8z"
			/>
	</g>
	<line class="st2" x1="25.47" y1="30.69" x2="129.12" y2="30.69"/>
	<g>
		<path class="st0" d="M24.08,16.96c0,0.63-0.31,1.28-0.92,1.96c0.56,1.17,0.84,2.24,0.84,3.23c0,0.24-0.05,0.36-0.15,0.36
			c-0.08,0-0.12-0.16-0.12-0.48c0-0.97-0.24-1.95-0.72-2.94c-0.99,1.04-2.33,1.94-4.03,2.7c-1.7,0.76-3.21,1.14-4.52,1.14
			c-0.18,0-0.34-0.01-0.48-0.03c-1.09,2.15-1.64,4.23-1.64,6.23c0,1.36,0.3,2.44,0.89,3.23c0.6,0.79,1.41,1.19,2.44,1.19
			c1.94,0,3.67-1.32,5.19-3.95c0.92-1.59,1.38-3.1,1.38-4.53c0-0.75-0.16-1.35-0.48-1.8c-0.32-0.44-0.75-0.67-1.28-0.67
			c-0.85,0-1.76,0.64-2.74,1.9c-0.98,1.27-1.46,2.45-1.46,3.56c0,0.1,0.02,0.15,0.06,0.15c0.03-0.01,0.06-0.03,0.08-0.06
			c0.18-0.23,0.35-0.35,0.51-0.35c0.34,0,0.52,0.27,0.52,0.8c0,0.71-0.25,1.07-0.74,1.07c-0.45,0-0.67-0.39-0.67-1.16
			c0-1.38,0.49-2.75,1.48-4.11c0.99-1.36,1.99-2.03,3-2.03c1.31,0,1.96,1.02,1.96,3.06c0,2.1-0.71,4.02-2.13,5.76
			c-1.42,1.73-3,2.6-4.73,2.6c-1.21,0-2.22-0.57-3.04-1.72c-0.82-1.15-1.23-2.57-1.23-4.26c0-1.64,0.41-3.33,1.22-5.05
			c-2.95-0.77-4.43-2.42-4.43-4.95c0-1.51,0.55-2.77,1.65-3.78c1.1-1.01,2.46-1.52,4.1-1.52c2.28,0,4.59,1.08,6.92,3.23
			c0.4-0.12,0.81-0.17,1.24-0.17C23.4,15.54,24.08,16.02,24.08,16.96z M20.52,15.77c-2.07-1.7-4.28-2.55-6.61-2.55
			c-1.44,0-2.71,0.48-3.79,1.45c-1.08,0.97-1.62,2.1-1.62,3.39c0,2.31,1.38,3.8,4.15,4.48C14.37,19.15,16.99,16.89,20.52,15.77z
			 M22.92,18.89c-0.52-1.07-1.23-2.02-2.12-2.85c-1.27,0.49-2.52,1.34-3.73,2.54c-1.21,1.2-2.21,2.57-2.98,4.11
			c1.42,0,3-0.37,4.73-1.11C20.54,20.84,21.91,19.94,22.92,18.89z M23.91,16.96c0-0.79-0.55-1.19-1.64-1.19
			c-0.34,0-0.75,0.07-1.22,0.2c0.81,0.79,1.48,1.71,2.01,2.77C23.63,18.07,23.91,17.47,23.91,16.96z"/>
	</g>
	<g>
		<path class="st0" d="M45.64,22.7l0.33-0.07l-0.37,1.25c-0.15,0.5-0.29,1.07-0.42,1.72c-0.07,0.35-0.11,0.58-0.11,0.68
			c0,0.1,0.04,0.15,0.12,0.15c0.05,0,0.14-0.03,0.25-0.1c0.2-0.12,0.4-0.27,0.59-0.45l0.16,0.19c-0.38,0.34-0.61,0.55-0.72,0.62
			c-0.21,0.14-0.41,0.25-0.6,0.32c-0.12,0.05-0.25,0.07-0.36,0.07c-0.09,0-0.15-0.02-0.19-0.06c-0.04-0.04-0.06-0.1-0.06-0.17
			c0-0.05,0.01-0.12,0.04-0.2l0.2-0.67c-0.28,0.34-0.62,0.63-1.01,0.87c-0.24,0.15-0.46,0.23-0.66,0.23c-0.19,0-0.34-0.07-0.44-0.2
			c-0.14-0.18-0.21-0.42-0.21-0.71c0-0.35,0.09-0.74,0.28-1.16c0.19-0.43,0.43-0.82,0.75-1.16c0.31-0.35,0.64-0.6,0.99-0.77
			c0.27-0.12,0.61-0.19,1.03-0.19c0.11,0,0.21,0.01,0.32,0.02L45.64,22.7z M45.03,23.45c-0.18-0.04-0.33-0.05-0.45-0.05
			c-0.3,0-0.55,0.08-0.77,0.24c-0.22,0.16-0.42,0.46-0.61,0.88c-0.19,0.42-0.28,0.84-0.28,1.27c0,0.22,0.04,0.38,0.11,0.48
			c0.08,0.1,0.17,0.15,0.3,0.15c0.23,0,0.47-0.12,0.73-0.37c0.26-0.24,0.45-0.6,0.57-1.06L45.03,23.45z"/>
		<path class="st0" d="M66.88,23.1h1.18c0.19-0.82,0.42-1.43,0.67-1.83c0.25-0.4,0.58-0.72,0.98-0.95c0.4-0.23,0.78-0.35,1.13-0.35
			c0.2,0,0.35,0.04,0.45,0.12c0.1,0.08,0.15,0.17,0.15,0.28c0,0.1-0.03,0.18-0.1,0.25c-0.07,0.07-0.16,0.1-0.27,0.1
			c-0.12,0-0.33-0.03-0.65-0.1c-0.16-0.03-0.28-0.05-0.37-0.05c-0.22,0-0.41,0.13-0.59,0.4c-0.17,0.27-0.31,0.63-0.42,1.09
			l-0.25,1.05h1.31l-0.08,0.35H68.7l-0.77,3.15c-0.24,0.96-0.62,1.68-1.15,2.18c-0.53,0.49-1.1,0.74-1.72,0.74
			c-0.21,0-0.36-0.04-0.47-0.12c-0.11-0.08-0.16-0.18-0.16-0.3c0-0.1,0.04-0.18,0.11-0.24c0.07-0.06,0.18-0.09,0.32-0.09
			c0.07,0,0.17,0.01,0.31,0.02c0.23,0.03,0.45,0.04,0.66,0.04c0.33,0,0.56-0.08,0.71-0.23c0.15-0.15,0.3-0.53,0.44-1.12l1-4.02H66.8
			L66.88,23.1z"/>
		<path class="st0" d="M92.73,25.69l0.16,0.22c-0.81,0.77-1.5,1.15-2.07,1.15c-0.23,0-0.41-0.08-0.54-0.24
			c-0.12-0.16-0.19-0.41-0.19-0.76c0-0.7,0.21-1.4,0.64-2.1c0.48-0.79,1.05-1.19,1.72-1.19c0.23,0,0.41,0.06,0.54,0.17
			c0.12,0.12,0.18,0.28,0.18,0.48c0,0.21-0.07,0.42-0.22,0.63c-0.15,0.21-0.41,0.42-0.79,0.65c-0.19,0.11-0.6,0.3-1.22,0.59
			c-0.03,0.18-0.04,0.35-0.04,0.51c0,0.23,0.04,0.4,0.11,0.49c0.07,0.09,0.18,0.14,0.32,0.14c0.13,0,0.28-0.04,0.44-0.11
			C92,26.21,92.31,26,92.73,25.69z M91,24.98c0.53-0.24,0.93-0.49,1.19-0.76c0.18-0.19,0.27-0.38,0.27-0.57
			c0-0.14-0.04-0.25-0.11-0.34c-0.07-0.08-0.17-0.13-0.29-0.13c-0.12,0-0.24,0.05-0.36,0.14c-0.15,0.12-0.28,0.31-0.39,0.55
			C91.17,24.23,91.07,24.6,91,24.98z M92.8,20.76h0.94l-1.67,1.43h-0.29L92.8,20.76z"/>
		<path class="st0" d="M115.94,22.78c0.29,0,0.52,0.06,0.68,0.17c0.16,0.11,0.24,0.24,0.24,0.39c0,0.09-0.03,0.17-0.1,0.23
			c-0.07,0.07-0.15,0.1-0.24,0.1c-0.06,0-0.12-0.01-0.16-0.04c-0.05-0.03-0.11-0.1-0.2-0.21c-0.16-0.21-0.32-0.32-0.48-0.32
			c-0.14,0-0.25,0.05-0.36,0.15c-0.1,0.1-0.16,0.23-0.16,0.39c0,0.13,0.03,0.27,0.1,0.39c0.07,0.13,0.23,0.33,0.5,0.61
			c0.36,0.39,0.55,0.76,0.55,1.1c0,0.35-0.15,0.65-0.44,0.91c-0.3,0.26-0.68,0.39-1.14,0.39c-0.39,0-0.68-0.08-0.87-0.24
			c-0.19-0.16-0.29-0.36-0.29-0.59c0-0.12,0.04-0.21,0.11-0.29c0.07-0.08,0.16-0.11,0.27-0.11c0.09,0,0.17,0.03,0.24,0.09
			c0.07,0.06,0.1,0.13,0.1,0.21c0,0.03,0,0.08-0.01,0.13c0,0.04,0,0.08,0,0.11c0,0.11,0.05,0.2,0.14,0.28
			c0.09,0.08,0.21,0.11,0.36,0.11c0.18,0,0.33-0.03,0.47-0.09c0.13-0.06,0.24-0.15,0.31-0.28c0.08-0.12,0.11-0.25,0.11-0.37
			c0-0.12-0.04-0.24-0.11-0.35c-0.07-0.12-0.23-0.31-0.48-0.59c-0.34-0.38-0.51-0.75-0.51-1.1c0-0.32,0.13-0.6,0.39-0.84
			C115.21,22.9,115.54,22.78,115.94,22.78z"/>
	</g>
	<line class="st2" x1="25.47" y1="17.76" x2="129.12" y2="17.76"/>
	<line class="st2" x1="27.9" y1="133.1" x2="62.45" y2="133.1"/>
	<g>
		<path class="st0" d="M83.93,129.93l0.15,0.21c-0.77,0.73-1.42,1.09-1.97,1.09c-0.22,0-0.39-0.07-0.51-0.23
			c-0.12-0.15-0.18-0.39-0.18-0.72c0-0.67,0.2-1.33,0.61-2c0.46-0.75,1-1.13,1.64-1.13c0.22,0,0.39,0.06,0.51,0.17
			c0.12,0.11,0.18,0.26,0.18,0.46c0,0.2-0.07,0.4-0.21,0.6c-0.14,0.2-0.39,0.4-0.75,0.61c-0.18,0.1-0.57,0.29-1.16,0.56
			c-0.03,0.17-0.04,0.33-0.04,0.48c0,0.22,0.04,0.38,0.11,0.46c0.07,0.09,0.17,0.13,0.31,0.13c0.13,0,0.27-0.04,0.42-0.11
			C83.23,130.42,83.54,130.22,83.93,129.93z M82.29,129.25c0.5-0.23,0.88-0.47,1.13-0.73c0.17-0.18,0.26-0.36,0.26-0.54
			c0-0.13-0.04-0.24-0.11-0.32s-0.16-0.12-0.27-0.12c-0.12,0-0.23,0.04-0.34,0.13c-0.15,0.12-0.27,0.29-0.37,0.53
			C82.45,128.54,82.35,128.89,82.29,129.25z M84,125.23h0.89l-1.59,1.36h-0.28L84,125.23z"/>
		<path class="st0" d="M89.09,129.97l0.16,0.17c-0.24,0.27-0.53,0.53-0.86,0.75c-0.33,0.23-0.61,0.34-0.82,0.34
			c-0.1,0-0.18-0.04-0.24-0.11c-0.06-0.07-0.09-0.17-0.09-0.3c0-0.25,0.1-0.77,0.29-1.56l0.51-2.06c0.18-0.74,0.34-1.24,0.46-1.5
			c0.19-0.38,0.47-0.68,0.82-0.89c0.35-0.21,0.73-0.32,1.12-0.32c0.13,0,0.24,0.03,0.32,0.1c0.08,0.07,0.11,0.14,0.11,0.23
			c0,0.1-0.04,0.18-0.11,0.25c-0.07,0.06-0.18,0.1-0.33,0.1c-0.09,0-0.23-0.02-0.4-0.05c-0.15-0.03-0.29-0.04-0.42-0.04
			s-0.22,0.03-0.29,0.08c-0.09,0.07-0.17,0.23-0.25,0.47c-0.07,0.24-0.19,0.71-0.36,1.42l-0.47,1.96c-0.23,0.98-0.35,1.5-0.35,1.54
			c0,0.1,0.04,0.15,0.11,0.15c0.07,0,0.17-0.04,0.3-0.12C88.57,130.43,88.83,130.23,89.09,129.97z"/>
		<path class="st0" d="M94.3,129.93l0.15,0.21c-0.77,0.73-1.42,1.09-1.97,1.09c-0.22,0-0.39-0.07-0.51-0.23
			c-0.12-0.15-0.18-0.39-0.18-0.72c0-0.67,0.2-1.33,0.61-2c0.46-0.75,1-1.13,1.64-1.13c0.22,0,0.39,0.06,0.51,0.17
			c0.12,0.11,0.18,0.26,0.18,0.46c0,0.2-0.07,0.4-0.21,0.6c-0.14,0.2-0.39,0.4-0.75,0.61c-0.18,0.1-0.57,0.29-1.16,0.56
			c-0.03,0.17-0.04,0.33-0.04,0.48c0,0.22,0.04,0.38,0.11,0.46c0.07,0.09,0.17,0.13,0.31,0.13c0.13,0,0.27-0.04,0.42-0.11
			C93.6,130.42,93.9,130.22,94.3,129.93z M92.66,129.25c0.5-0.23,0.88-0.47,1.13-0.73c0.17-0.18,0.26-0.36,0.26-0.54
			c0-0.13-0.04-0.24-0.11-0.32s-0.16-0.12-0.27-0.12c-0.12,0-0.23,0.04-0.34,0.13c-0.15,0.12-0.27,0.29-0.37,0.53
			C92.82,128.54,92.72,128.89,92.66,129.25z"/>
		<path class="st0" d="M100.08,130.08l0.1,0.27c-0.74,0.58-1.37,0.88-1.88,0.88c-0.27,0-0.47-0.1-0.59-0.29
			c-0.12-0.19-0.19-0.44-0.19-0.74c0-0.49,0.13-1,0.39-1.52c0.26-0.52,0.58-0.92,0.96-1.2c0.29-0.22,0.62-0.32,0.99-0.32
			c0.23,0,0.41,0.04,0.53,0.13c0.12,0.09,0.18,0.19,0.18,0.32c0,0.1-0.03,0.18-0.09,0.24s-0.15,0.09-0.26,0.09
			c-0.11,0-0.25-0.05-0.42-0.15c-0.18-0.11-0.33-0.16-0.45-0.16c-0.15,0-0.31,0.07-0.46,0.21c-0.15,0.14-0.3,0.41-0.43,0.81
			c-0.14,0.4-0.21,0.8-0.21,1.2c0,0.3,0.06,0.53,0.17,0.69c0.08,0.12,0.2,0.19,0.36,0.19C99.13,130.72,99.57,130.51,100.08,130.08z"
			/>
		<path class="st0" d="M104.48,126.44l0.74-0.29l-0.34,1.31h0.97l-0.07,0.33h-0.97l-0.41,1.57c-0.13,0.47-0.19,0.8-0.19,0.98
			c0,0.08,0.02,0.15,0.05,0.18c0.04,0.04,0.09,0.06,0.15,0.06c0.1,0,0.25-0.06,0.45-0.17c0.26-0.15,0.51-0.33,0.75-0.52l0.18,0.22
			c-0.68,0.52-1.14,0.83-1.37,0.95c-0.23,0.12-0.42,0.17-0.56,0.17c-0.12,0-0.21-0.04-0.27-0.13c-0.07-0.08-0.1-0.22-0.1-0.41
			c0-0.23,0.06-0.57,0.18-1.03l0.48-1.87h-0.76l0.08-0.33h0.76L104.48,126.44z"/>
		<path class="st0" d="M108.79,128.25l-0.21-0.16c0.31-0.34,0.6-0.59,0.85-0.73c0.26-0.15,0.48-0.22,0.66-0.22
			c0.1,0,0.18,0.02,0.23,0.07c0.05,0.04,0.08,0.1,0.08,0.18c0,0.09-0.1,0.47-0.3,1.15c-0.33,1.11-0.5,1.78-0.5,2.01
			c0,0.04,0.01,0.08,0.03,0.11c0.02,0.03,0.05,0.04,0.07,0.04c0.1,0,0.36-0.19,0.77-0.58l0.18,0.18c-0.43,0.4-0.74,0.66-0.94,0.77
			s-0.36,0.17-0.48,0.17c-0.11,0-0.2-0.03-0.26-0.1c-0.06-0.07-0.1-0.16-0.1-0.29c0-0.39,0.23-1.35,0.7-2.86
			c0.02-0.07,0.03-0.14,0.03-0.19c0-0.06-0.03-0.09-0.08-0.09c-0.06,0-0.13,0.02-0.21,0.07
			C109.24,127.82,109.06,127.98,108.79,128.25z M110.63,125.14c0.1,0,0.18,0.03,0.24,0.1c0.06,0.06,0.09,0.15,0.09,0.25
			c0,0.14-0.05,0.26-0.14,0.36c-0.1,0.1-0.2,0.16-0.32,0.16c-0.09,0-0.17-0.03-0.23-0.1c-0.06-0.07-0.09-0.15-0.09-0.26
			c0-0.14,0.05-0.26,0.14-0.36C110.39,125.19,110.5,125.14,110.63,125.14z"/>
		<path class="st0" d="M115.66,127.16c0.31,0,0.56,0.12,0.76,0.37c0.2,0.24,0.3,0.58,0.3,1.02c0,0.69-0.24,1.32-0.73,1.87
			c-0.49,0.55-1,0.83-1.55,0.83c-0.33,0-0.6-0.11-0.81-0.33c-0.2-0.22-0.31-0.52-0.31-0.9c0-0.66,0.19-1.26,0.56-1.82
			C114.37,127.5,114.96,127.16,115.66,127.16z M115.26,127.51c-0.27,0-0.52,0.19-0.77,0.57c-0.25,0.38-0.37,0.9-0.37,1.57
			c0,0.41,0.08,0.73,0.23,0.96c0.11,0.17,0.26,0.26,0.45,0.26c0.26,0,0.5-0.16,0.72-0.49c0.28-0.42,0.41-0.95,0.41-1.57
			c0-0.47-0.06-0.8-0.19-1C115.61,127.61,115.45,127.51,115.26,127.51z"/>
		<path class="st0" d="M119.72,128.26l-0.16-0.16c0.4-0.38,0.72-0.64,0.96-0.76c0.24-0.13,0.44-0.19,0.61-0.19
			c0.07,0,0.12,0.01,0.15,0.04c0.04,0.03,0.06,0.06,0.06,0.1c0,0.03-0.01,0.08-0.02,0.15l-0.21,0.94c0.32-0.35,0.72-0.68,1.2-0.99
			c0.26-0.16,0.47-0.24,0.63-0.24c0.12,0,0.22,0.04,0.29,0.12c0.07,0.08,0.1,0.19,0.1,0.34c0,0.1-0.01,0.21-0.04,0.33
			c-0.05,0.2-0.18,0.65-0.39,1.33c-0.2,0.64-0.3,1.06-0.3,1.27c0,0.06,0.01,0.11,0.03,0.14c0.02,0.03,0.05,0.05,0.08,0.05
			c0.09,0,0.23-0.09,0.43-0.26c0.14-0.13,0.28-0.24,0.41-0.35l0.12,0.17c-0.29,0.32-0.59,0.57-0.9,0.76
			c-0.2,0.12-0.36,0.19-0.49,0.19c-0.12,0-0.21-0.04-0.28-0.13c-0.07-0.09-0.1-0.23-0.1-0.42c0-0.28,0.17-0.97,0.52-2.08
			c0.11-0.39,0.16-0.62,0.16-0.69c0-0.1-0.06-0.15-0.17-0.15c-0.13,0-0.29,0.07-0.48,0.2c-0.29,0.19-0.54,0.42-0.74,0.69
			c-0.13,0.17-0.23,0.44-0.31,0.81l-0.38,1.64h-0.7c0.13-0.47,0.25-0.92,0.34-1.35l0.42-1.78c0.02-0.07,0.02-0.12,0.02-0.15
			c0-0.08-0.03-0.13-0.09-0.13c-0.05,0-0.12,0.03-0.22,0.1C120.07,127.92,119.89,128.07,119.72,128.26z"/>
	</g>
	<g>
		<path class="st0" d="M83.92,120.1c0,0.34-0.34,0.82-1.02,1.46c-0.68,0.64-1.51,1.25-2.48,1.83c-0.13,0.4-0.31,1.13-0.56,2.18
			c-0.39,1.65-0.76,2.82-1.09,3.52c-0.33,0.69-0.88,1.4-1.63,2.12c-2.19,2.07-4.65,3.11-7.37,3.11c-0.78,0-1.47-0.13-2.07-0.39
			c-0.33,0.65-0.5,1.21-0.5,1.69c0,0.61,0.2,1.16,0.61,1.67c0.04,0.04,0.06,0.09,0.06,0.15c0,0.06-0.04,0.08-0.11,0.08
			c-0.16,0-0.34-0.22-0.53-0.65c-0.19-0.44-0.28-0.84-0.28-1.23c0-0.55,0.18-1.15,0.54-1.82c-1.47-0.76-2.2-2.06-2.2-3.91
			c0-1.19,0.35-2.37,1.05-3.54c0.7-1.17,1.69-2.23,2.96-3.17c1.62-1.2,3.23-1.79,4.82-1.79c0.86,0,1.55,0.24,2.06,0.73
			c0.51,0.49,0.76,1.14,0.76,1.97c0,0.44-0.06,0.9-0.19,1.38c1.03-0.69,1.95-1.27,2.74-1.75c0.51-1.1,1.14-2.05,1.91-2.85
			c0.77-0.79,1.43-1.19,2-1.19C83.75,119.68,83.92,119.82,83.92,120.1z M76.77,124.05c0-0.74-0.23-1.33-0.7-1.78
			c-0.47-0.45-1.08-0.67-1.85-0.67c-1.89,0-3.72,0.98-5.49,2.95c-1.77,1.97-2.65,4.01-2.65,6.12c0,1.39,0.51,2.37,1.53,2.95
			c0.48-0.79,1.16-1.65,2.06-2.58c-0.46-0.4-0.7-0.88-0.7-1.43c0-0.42,0.13-0.78,0.4-1.08c0.27-0.3,0.59-0.45,0.97-0.45
			c0.47,0,0.71,0.22,0.71,0.65c0,0.23-0.09,0.42-0.26,0.58c-0.18,0.17-0.38,0.25-0.62,0.25c-0.34,0-0.52-0.17-0.52-0.5
			c0-0.11,0.04-0.22,0.11-0.34c0.03-0.09,0.04-0.14,0.04-0.16c0-0.04-0.02-0.06-0.06-0.06c-0.12,0-0.24,0.13-0.37,0.38
			c-0.13,0.25-0.19,0.5-0.19,0.75c0,0.46,0.21,0.88,0.64,1.24c1.41-1.49,3.65-3.23,6.7-5.22C76.68,125.03,76.77,124.5,76.77,124.05z
			 M79.38,124.01c-0.82,0.52-1.72,1.11-2.7,1.77c-0.46,1.49-1.28,2.8-2.44,3.92c-1.16,1.12-2.28,1.69-3.35,1.69
			c-0.32,0-0.68-0.08-1.07-0.25c-0.79,0.82-1.47,1.69-2.03,2.59c0.58,0.26,1.23,0.39,1.96,0.39c1.32,0,2.6-0.38,3.84-1.12
			c1.24-0.75,2.3-1.79,3.19-3.12c0.41-0.62,0.74-1.19,0.98-1.73c0.24-0.53,0.63-1.53,1.16-3C79.06,124.79,79.21,124.41,79.38,124.01
			z M76.4,125.95l-0.7,0.47c-2.65,1.83-4.56,3.35-5.74,4.57c0.3,0.15,0.61,0.23,0.95,0.23c0.98,0,2.01-0.52,3.09-1.55
			C75.08,128.64,75.88,127.4,76.4,125.95z M83.72,120.12c0-0.17-0.1-0.25-0.3-0.25c-0.47,0-1,0.33-1.58,0.98
			c-0.58,0.65-1.03,1.41-1.34,2.28c0.93-0.57,1.7-1.14,2.3-1.71C83.42,120.84,83.72,120.41,83.72,120.12z"/>
	</g>
	<line class="st2" x1="37.35" y1="123.66" x2="66.45" y2="123.66"/>
	<line class="st2" x1="81.4" y1="123.66" x2="129.12" y2="123.66"/>
	<line class="st2" x1="78.52" y1="133.1" x2="129.12" y2="133.1"/>
</g>
<g>
</g>
<g>
</g>
<g>
</g>
<g>
</g>
<g>
</g>
<g>
</g>
<g>
</g>
<g>
</g>
<g>
</g>
<g>
</g>
<g>
</g>
<g>
</g>
<g>
</g>
<g>
</g>
<g>
</g>
</svg>
